<svg width="201" height="211" viewBox="0 0 201 211" fill="none" xmlns="http://www.w3.org/2000/svg">
<g id="envelope">
<path id="Shape" fill-rule="evenodd" clip-rule="evenodd" d="M185.145 77.3443L167.559 62.6057C165.333 60.74 165.04 57.4222 166.905 55.1952C168.77 52.9683 172.087 52.6755 174.313 54.5412L191.9 69.2798C194.126 71.1455 194.419 74.4633 192.554 76.6902C190.688 78.9172 187.372 79.21 185.145 77.3443ZM146.577 45.0217L110.948 15.1622C105.35 10.4703 97.3091 10.26 91.4918 14.5294L90.6764 15.1697L55.4485 44.7376C53.2237 46.605 49.9068 46.3146 48.04 44.0891C46.3168 42.0347 46.4315 39.0495 48.2093 37.1337L48.6883 36.6782L83.9161 7.11028C93.6851 -1.08912 107.927 -1.09443 117.702 7.09769L153.332 36.9572C155.558 38.8229 155.851 42.1407 153.985 44.3676C152.12 46.5946 148.804 46.8874 146.577 45.0217ZM10.259 68.9878C8.4812 70.9037 8.36644 73.8889 10.0896 75.9432C11.9564 78.1688 15.2734 78.4591 17.4982 76.5918L33.8695 62.8508L34.3484 62.3953C36.1262 60.4794 36.241 57.4943 34.5178 55.4399C32.651 53.2143 29.334 52.924 27.1092 54.7914L10.7379 68.5323L10.259 68.9878Z" fill="#FAD1FA"/>
<path id="Lettre" fill-rule="evenodd" clip-rule="evenodd" d="M169.17 36.6213C171.867 36.6213 174.089 38.652 174.393 41.2682L174.429 41.8817V110.266C174.429 113.171 172.074 115.527 169.17 115.527C166.473 115.527 164.25 113.496 163.947 110.88L163.911 110.266L163.91 47.142H37.7018L37.7029 110.266C37.7029 112.964 35.6728 115.187 33.0575 115.491L32.4442 115.527C29.7474 115.527 27.5247 113.496 27.2209 110.88L27.1855 110.266V41.8817C27.1855 39.184 29.2156 36.9606 31.831 36.6567L32.4442 36.6213H169.17ZM137.618 99.7456C140.522 99.7456 142.877 102.101 142.877 105.006C142.877 107.704 140.846 109.927 138.231 110.231L137.618 110.266H63.9963C61.092 110.266 58.7376 107.911 58.7376 105.006C58.7376 102.308 60.7677 100.085 63.383 99.781L63.9963 99.7456H137.618ZM142.877 73.4438C142.877 70.5386 140.522 68.1835 137.618 68.1835H63.9963L63.383 68.2188C60.7677 68.5227 58.7376 70.7461 58.7376 73.4438C58.7376 76.349 61.092 78.7042 63.9963 78.7042H137.618L138.231 78.6688C140.846 78.3649 142.877 76.1415 142.877 73.4438Z" fill="#FAD1FA"/>
<path id="envelope_2" fill-rule="evenodd" clip-rule="evenodd" d="M131.713 147.694L190.205 190.714V100.064L131.713 147.694ZM184.655 199.69L110.147 144.892C104.879 141.018 97.8067 140.814 92.3496 144.281L91.4556 144.892L16.9607 199.69H184.655ZM11.4101 190.714V100.196L69.8704 147.711L11.4101 190.714ZM188.243 88.0959L122.959 141.256L116.377 136.415L115.334 135.686C106.18 129.609 94.1478 129.853 85.2249 136.416L78.6252 141.271L13.3618 88.2261C13.1027 88.0155 12.8642 87.7806 12.6495 87.5248C10.7828 85.2992 11.073 81.9812 13.2979 80.1138L20.1001 74.4045L20.5791 73.9489C22.3569 72.0331 22.4716 69.0479 20.7484 66.9935C18.8816 64.768 15.5647 64.4776 13.3398 66.345L6.53758 72.0544L5.79324 72.7196C2.66777 75.6938 1.01083 79.6903 0.906814 83.7446C0.89746 83.8729 0.8927 84.0024 0.8927 84.133V194.429L0.919481 195.357C1.39932 203.641 8.26705 210.21 16.6687 210.21H184.947L185.873 210.184C194.155 209.704 200.723 202.834 200.723 194.429V84.133L200.697 83.6878C200.629 80.2916 199.468 76.8922 197.158 74.0536C196.527 73.2771 195.822 72.5626 195.055 71.9196L188.54 66.46L188.009 66.0677C185.813 64.6508 182.854 65.0584 181.132 67.1141C179.267 69.341 179.56 72.6588 181.786 74.5245L188.301 79.9841L188.668 80.3231L189.002 80.6954C190.835 82.9485 190.496 86.2618 188.243 88.0959Z" fill="#FAD1FA"/>
</g>
</svg>
