<svg width="168" height="149" viewBox="0 0 168 149" fill="none" xmlns="http://www.w3.org/2000/svg">
<g id="Group">
<g id="Group_2">
<path id="Vector" d="M2.00006 2L17.6095 17.6095" stroke="#13F24B" stroke-width="3" stroke-miterlimit="10"/>
<path id="Vector_2" d="M17.6095 2L2.00006 17.6095" stroke="#13F24B" stroke-width="3" stroke-miterlimit="10"/>
</g>
<g id="Group_3">
<path id="Vector_3" d="M51.5313 2L67.1408 17.6095" stroke="#13F24B" stroke-width="3" stroke-miterlimit="10"/>
<path id="Vector_4" d="M67.1408 2L51.5313 17.6095" stroke="#13F24B" stroke-width="3" stroke-miterlimit="10"/>
</g>
<g id="Group_4">
<path id="Vector_5" d="M101.062 2L116.659 17.6095" stroke="#13F24B" stroke-width="3" stroke-miterlimit="10"/>
<path id="Vector_6" d="M116.659 2L101.062 17.6095" stroke="#13F24B" stroke-width="3" stroke-miterlimit="10"/>
</g>
<g id="Group_5">
<path id="Vector_7" d="M150.58 2L166.19 17.6095" stroke="#13F24B" stroke-width="3" stroke-miterlimit="10"/>
<path id="Vector_8" d="M166.19 2L150.58 17.6095" stroke="#13F24B" stroke-width="3" stroke-miterlimit="10"/>
</g>
<g id="Group_6">
<path id="Vector_9" d="M2 45.3875L17.6095 60.9969" stroke="#13F24B" stroke-width="3" stroke-miterlimit="10"/>
<path id="Vector_10" d="M17.6095 45.3875L2 60.9969" stroke="#13F24B" stroke-width="3" stroke-miterlimit="10"/>
</g>
<g id="Group_7">
<path id="Vector_11" d="M51.5313 45.3875L67.1408 60.9969" stroke="#13F24B" stroke-width="3" stroke-miterlimit="10"/>
<path id="Vector_12" d="M67.1408 45.3875L51.5313 60.9969" stroke="#13F24B" stroke-width="3" stroke-miterlimit="10"/>
</g>
<g id="Group_8">
<path id="Vector_13" d="M101.062 45.3875L116.659 60.9969" stroke="#13F24B" stroke-width="3" stroke-miterlimit="10"/>
<path id="Vector_14" d="M116.659 45.3875L101.062 60.9969" stroke="#13F24B" stroke-width="3" stroke-miterlimit="10"/>
</g>
<g id="Group_9">
<path id="Vector_15" d="M150.58 45.3875L166.19 60.9969" stroke="#13F24B" stroke-width="3" stroke-miterlimit="10"/>
<path id="Vector_16" d="M166.19 45.3875L150.58 60.9969" stroke="#13F24B" stroke-width="3" stroke-miterlimit="10"/>
</g>
<g id="Group_10">
<path id="Vector_17" d="M2 88.7749L17.6095 104.384" stroke="#13F24B" stroke-width="3" stroke-miterlimit="10"/>
<path id="Vector_18" d="M17.6095 88.7749L2 104.384" stroke="#13F24B" stroke-width="3" stroke-miterlimit="10"/>
</g>
<g id="Group_11">
<path id="Vector_19" d="M51.5313 88.7749L67.1408 104.384" stroke="#13F24B" stroke-width="3" stroke-miterlimit="10"/>
<path id="Vector_20" d="M67.1408 88.7749L51.5313 104.384" stroke="#13F24B" stroke-width="3" stroke-miterlimit="10"/>
</g>
<g id="Group_12">
<path id="Vector_21" d="M101.062 88.7749L116.659 104.384" stroke="#13F24B" stroke-width="3" stroke-miterlimit="10"/>
<path id="Vector_22" d="M116.659 88.7749L101.062 104.384" stroke="#13F24B" stroke-width="3" stroke-miterlimit="10"/>
</g>
<g id="Group_13">
<path id="Vector_23" d="M150.58 88.7749L166.19 104.384" stroke="#13F24B" stroke-width="3" stroke-miterlimit="10"/>
<path id="Vector_24" d="M166.19 88.7749L150.58 104.384" stroke="#13F24B" stroke-width="3" stroke-miterlimit="10"/>
</g>
<g id="Group_14">
<path id="Vector_25" d="M2 132.162L17.6095 147.772" stroke="#13F24B" stroke-width="3" stroke-miterlimit="10"/>
<path id="Vector_26" d="M17.6095 132.162L2 147.772" stroke="#13F24B" stroke-width="3" stroke-miterlimit="10"/>
</g>
<g id="Group_15">
<path id="Vector_27" d="M51.5313 132.162L67.1408 147.772" stroke="#13F24B" stroke-width="3" stroke-miterlimit="10"/>
<path id="Vector_28" d="M67.1408 132.162L51.5313 147.772" stroke="#13F24B" stroke-width="3" stroke-miterlimit="10"/>
</g>
<g id="Group_16">
<path id="Vector_29" d="M101.062 132.162L116.659 147.772" stroke="#13F24B" stroke-width="3" stroke-miterlimit="10"/>
<path id="Vector_30" d="M116.659 132.162L101.062 147.772" stroke="#13F24B" stroke-width="3" stroke-miterlimit="10"/>
</g>
<g id="Group_17">
<path id="Vector_31" d="M150.58 132.162L166.19 147.772" stroke="#13F24B" stroke-width="3" stroke-miterlimit="10"/>
<path id="Vector_32" d="M166.19 132.162L150.58 147.772" stroke="#13F24B" stroke-width="3" stroke-miterlimit="10"/>
</g>
</g>
</svg>
