<svg width="67" height="203" viewBox="0 0 67 203" fill="none" xmlns="http://www.w3.org/2000/svg">
<path d="M2.4505 123.24C3.79153 123.24 4.87865 122.153 4.87865 120.812C4.87865 119.471 3.79153 118.384 2.4505 118.384C1.10946 118.384 0.0223389 119.471 0.0223389 120.812C0.0223389 122.153 1.10946 123.24 2.4505 123.24Z" fill="#13F24B"/>
<path d="M2.4505 142.986C3.79153 142.986 4.87865 141.899 4.87865 140.558C4.87865 139.217 3.79153 138.13 2.4505 138.13C1.10946 138.13 0.0223389 139.217 0.0223389 140.558C0.0223389 141.899 1.10946 142.986 2.4505 142.986Z" fill="#13F24B"/>
<path d="M2.4505 162.709C3.79153 162.709 4.87865 161.622 4.87865 160.281C4.87865 158.94 3.79153 157.853 2.4505 157.853C1.10946 157.853 0.0223389 158.94 0.0223389 160.281C0.0223389 161.622 1.10946 162.709 2.4505 162.709Z" fill="#13F24B"/>
<path d="M4.85595 180.027C4.85595 181.356 3.77931 182.455 2.42779 182.455C1.07627 182.455 -0.000366211 181.379 -0.000366211 180.027C-0.000366211 178.676 1.07627 177.599 2.42779 177.599C3.77931 177.599 4.85595 178.676 4.85595 180.027Z" fill="#13F24B"/>
<path d="M4.85595 199.75C4.85595 201.079 3.77931 202.178 2.42779 202.178C1.07627 202.178 -0.000366211 201.102 -0.000366211 199.75C-0.000366211 198.399 1.07627 197.322 2.42779 197.322C3.77931 197.322 4.85595 198.399 4.85595 199.75Z" fill="#13F24B"/>
<path d="M17.9362 4.85631C19.2772 4.85631 20.3644 3.76919 20.3644 2.42816C20.3644 1.08712 19.2772 0 17.9362 0C16.5952 0 15.5081 1.08712 15.5081 2.42816C15.5081 3.76919 16.5952 4.85631 17.9362 4.85631Z" fill="#13F24B"/>
<path d="M17.9363 24.6023C19.2774 24.6023 20.3645 23.5152 20.3645 22.1741C20.3645 20.8331 19.2774 19.746 17.9363 19.746C16.5953 19.746 15.5082 20.8331 15.5082 22.1741C15.5082 23.5152 16.5953 24.6023 17.9363 24.6023Z" fill="#13F24B"/>
<path d="M17.9363 44.3253C19.2774 44.3253 20.3645 43.2382 20.3645 41.8972C20.3645 40.5561 19.2774 39.469 17.9363 39.469C16.5953 39.469 15.5082 40.5561 15.5082 41.8972C15.5082 43.2382 16.5953 44.3253 17.9363 44.3253Z" fill="#13F24B"/>
<path d="M17.9363 64.0485C19.2774 64.0485 20.3645 62.9613 20.3645 61.6203C20.3645 60.2793 19.2774 59.1921 17.9363 59.1921C16.5953 59.1921 15.5082 60.2793 15.5082 61.6203C15.5082 62.9613 16.5953 64.0485 17.9363 64.0485Z" fill="#13F24B"/>
<path d="M20.3645 81.3661C20.3645 82.6948 19.2879 83.7943 17.9363 83.7943C16.5848 83.7943 15.5082 82.7177 15.5082 81.3661C15.5082 80.0146 16.5848 78.938 17.9363 78.938C19.2879 78.938 20.3645 80.0146 20.3645 81.3661Z" fill="#13F24B"/>
<path d="M20.3645 101.089C20.3645 102.418 19.2879 103.517 17.9363 103.517C16.5848 103.517 15.5082 102.441 15.5082 101.089C15.5082 99.7378 16.5848 98.6611 17.9363 98.6611C19.2879 98.6611 20.3645 99.7378 20.3645 101.089Z" fill="#13F24B"/>
<path d="M17.9363 123.24C19.2774 123.24 20.3645 122.153 20.3645 120.812C20.3645 119.471 19.2774 118.384 17.9363 118.384C16.5953 118.384 15.5082 119.471 15.5082 120.812C15.5082 122.153 16.5953 123.24 17.9363 123.24Z" fill="#13F24B"/>
<path d="M17.9363 142.986C19.2774 142.986 20.3645 141.899 20.3645 140.558C20.3645 139.217 19.2774 138.13 17.9363 138.13C16.5953 138.13 15.5082 139.217 15.5082 140.558C15.5082 141.899 16.5953 142.986 17.9363 142.986Z" fill="#13F24B"/>
<path d="M17.9363 162.709C19.2774 162.709 20.3645 161.622 20.3645 160.281C20.3645 158.94 19.2774 157.853 17.9363 157.853C16.5953 157.853 15.5082 158.94 15.5082 160.281C15.5082 161.622 16.5953 162.709 17.9363 162.709Z" fill="#13F24B"/>
<path d="M20.3645 180.027C20.3645 181.356 19.2879 182.455 17.9363 182.455C16.5848 182.455 15.5082 181.379 15.5082 180.027C15.5082 178.676 16.5848 177.599 17.9363 177.599C19.2879 177.599 20.3645 178.676 20.3645 180.027Z" fill="#13F24B"/>
<path d="M20.3645 199.75C20.3645 201.079 19.2879 202.178 17.9363 202.178C16.5848 202.178 15.5082 201.102 15.5082 199.75C15.5082 198.399 16.5848 197.322 17.9363 197.322C19.2879 197.322 20.3645 198.399 20.3645 199.75Z" fill="#13F24B"/>
<path d="M35.8729 2.42816C35.8729 3.75677 34.7963 4.85631 33.4448 4.85631C32.0932 4.85631 31.0166 3.77968 31.0166 2.42816C31.0166 1.07663 32.0932 0 33.4448 0C34.7963 0 35.8729 1.07663 35.8729 2.42816Z" fill="#13F24B"/>
<path d="M35.8729 22.1741C35.8729 23.5027 34.7963 24.6023 33.4448 24.6023C32.0932 24.6023 31.0166 23.5256 31.0166 22.1741C31.0166 20.8226 32.0932 19.746 33.4448 19.746C34.7963 19.746 35.8729 20.8226 35.8729 22.1741Z" fill="#13F24B"/>
<path d="M35.8729 41.8972C35.8729 43.2258 34.7963 44.3253 33.4448 44.3253C32.0932 44.3253 31.0166 43.2487 31.0166 41.8972C31.0166 40.5456 32.0932 39.469 33.4448 39.469C34.7963 39.469 35.8729 40.5456 35.8729 41.8972Z" fill="#13F24B"/>
<path d="M35.8729 61.6203C35.8729 62.9489 34.7963 64.0485 33.4448 64.0485C32.0932 64.0485 31.0166 62.9718 31.0166 61.6203C31.0166 60.2688 32.0932 59.1921 33.4448 59.1921C34.7963 59.1921 35.8729 60.2688 35.8729 61.6203Z" fill="#13F24B"/>
<path d="M35.8729 81.3661C35.8729 82.6948 34.7963 83.7943 33.4448 83.7943C32.0932 83.7943 31.0166 82.7177 31.0166 81.3661C31.0166 80.0146 32.0932 78.938 33.4448 78.938C34.7963 78.938 35.8729 80.0146 35.8729 81.3661Z" fill="#13F24B"/>
<path d="M35.8729 101.089C35.8729 102.418 34.7963 103.517 33.4448 103.517C32.0932 103.517 31.0166 102.441 31.0166 101.089C31.0166 99.7378 32.0932 98.6611 33.4448 98.6611C34.7963 98.6611 35.8729 99.7378 35.8729 101.089Z" fill="#13F24B"/>
<path d="M35.8729 120.812C35.8729 122.141 34.7963 123.24 33.4448 123.24C32.0932 123.24 31.0166 122.164 31.0166 120.812C31.0166 119.461 32.0932 118.384 33.4448 118.384C34.7963 118.384 35.8729 119.461 35.8729 120.812Z" fill="#13F24B"/>
<path d="M51.3572 41.8972C51.3572 43.2258 50.2806 44.3253 48.9291 44.3253C47.5776 44.3253 46.5009 43.2487 46.5009 41.8972C46.5009 40.5456 47.5776 39.469 48.9291 39.469C50.2806 39.469 51.3572 40.5456 51.3572 41.8972Z" fill="#13F24B"/>
<path d="M51.3571 61.6202C51.3571 62.9488 50.2805 64.0483 48.9289 64.0483C47.5774 64.0483 46.5008 62.9717 46.5008 61.6202C46.5008 60.2687 47.5774 59.192 48.9289 59.192C50.2805 59.192 51.3571 60.2687 51.3571 61.6202Z" fill="#13F24B"/>
<path d="M51.3571 81.3661C51.3571 82.6948 50.2805 83.7943 48.9289 83.7943C47.5774 83.7943 46.5008 82.7177 46.5008 81.3661C46.5008 80.0146 47.5774 78.938 48.9289 78.938C50.2805 78.938 51.3571 80.0146 51.3571 81.3661Z" fill="#13F24B"/>
<path d="M51.3571 101.089C51.3571 102.418 50.2805 103.517 48.9289 103.517C47.5774 103.517 46.5008 102.441 46.5008 101.089C46.5008 99.7378 47.5774 98.6611 48.9289 98.6611C50.2805 98.6611 51.3571 99.7378 51.3571 101.089Z" fill="#13F24B"/>
<path d="M51.3571 120.812C51.3571 122.141 50.2805 123.24 48.9289 123.24C47.5774 123.24 46.5008 122.164 46.5008 120.812C46.5008 119.461 47.5774 118.384 48.9289 118.384C50.2805 118.384 51.3571 119.461 51.3571 120.812Z" fill="#13F24B"/>
<path d="M64.4595 44.3253C65.8005 44.3253 66.8876 43.2382 66.8876 41.8972C66.8876 40.5561 65.8005 39.469 64.4595 39.469C63.1184 39.469 62.0313 40.5561 62.0313 41.8972C62.0313 43.2382 63.1184 44.3253 64.4595 44.3253Z" fill="#13F24B"/>
<path d="M64.4595 64.0483C65.8005 64.0483 66.8876 62.9612 66.8876 61.6202C66.8876 60.2791 65.8005 59.192 64.4595 59.192C63.1184 59.192 62.0313 60.2791 62.0313 61.6202C62.0313 62.9612 63.1184 64.0483 64.4595 64.0483Z" fill="#13F24B"/>
<path d="M66.8649 81.3661C66.8649 82.6948 65.7883 83.7943 64.4368 83.7943C63.0852 83.7943 62.0086 82.7177 62.0086 81.3661C62.0086 80.0146 63.0852 78.938 64.4368 78.938C65.7883 78.938 66.8649 80.0146 66.8649 81.3661Z" fill="#13F24B"/>
<path d="M66.8649 101.089C66.8649 102.418 65.7883 103.517 64.4368 103.517C63.0852 103.517 62.0086 102.441 62.0086 101.089C62.0086 99.7378 63.0852 98.6611 64.4368 98.6611C65.7883 98.6611 66.8649 99.7378 66.8649 101.089Z" fill="#13F24B"/>
<path d="M64.4595 123.24C65.8005 123.24 66.8876 122.153 66.8876 120.812C66.8876 119.471 65.8005 118.384 64.4595 118.384C63.1184 118.384 62.0313 119.471 62.0313 120.812C62.0313 122.153 63.1184 123.24 64.4595 123.24Z" fill="#13F24B"/>
<path d="M64.4595 142.986C65.8005 142.986 66.8876 141.899 66.8876 140.558C66.8876 139.217 65.8005 138.13 64.4595 138.13C63.1184 138.13 62.0313 139.217 62.0313 140.558C62.0313 141.899 63.1184 142.986 64.4595 142.986Z" fill="#13F24B"/>
<path d="M64.4595 162.709C65.8005 162.709 66.8876 161.622 66.8876 160.281C66.8876 158.94 65.8005 157.853 64.4595 157.853C63.1184 157.853 62.0313 158.94 62.0313 160.281C62.0313 161.622 63.1184 162.709 64.4595 162.709Z" fill="#13F24B"/>
</svg>
