<svg width="138" height="138" viewBox="0 0 138 138" fill="none" xmlns="http://www.w3.org/2000/svg">
<g id="Clip path group">
<mask id="mask0_61_305" style="mask-type:luminance" maskUnits="userSpaceOnUse" x="0" y="0" width="138" height="138">
<g id="clippath-1">
<path id="Vector" d="M100.439 135.733L69.9789 105.273L68.9182 104.212L67.8575 105.273L37.3974 135.733L2.12106 100.439L32.5817 69.9788L33.6426 68.9179L32.5814 67.8572L2.12137 37.4148L37.3974 2.12158L67.8575 32.5817L68.9182 33.6423L69.9789 32.5817L100.439 2.12158L135.715 37.4148L105.255 67.8572L104.194 68.9179L105.255 69.9788L135.715 100.439L100.439 135.733Z" fill="white" stroke="white" stroke-width="3"/>
</g>
</mask>
<g mask="url(#mask0_61_305)">
<g id="Group">
<path id="Vector_2" d="M-15.9448 106.525L19.0572 -46.6111" stroke="#13F24B" stroke-width="2" stroke-miterlimit="10"/>
<path id="Vector_3" d="M-6.76413 111.962L28.2378 -41.1736" stroke="#13F24B" stroke-width="2" stroke-miterlimit="10"/>
<path id="Vector_4" d="M2.39848 117.404L37.418 -35.7362" stroke="#13F24B" stroke-width="2" stroke-miterlimit="10"/>
<path id="Vector_5" d="M11.5789 122.842L46.5984 -30.2986" stroke="#13F24B" stroke-width="2" stroke-miterlimit="10"/>
<path id="Vector_6" d="M20.7541 128.262L55.7781 -24.8609" stroke="#13F24B" stroke-width="2" stroke-miterlimit="10"/>
<path id="Vector_7" d="M29.9356 133.699L64.9551 -19.4412" stroke="#13F24B" stroke-width="2" stroke-miterlimit="10"/>
<path id="Vector_8" d="M39.116 139.137L74.1356 -14.0038" stroke="#13F24B" stroke-width="2" stroke-miterlimit="10"/>
<path id="Vector_9" d="M48.2955 144.574L83.315 -8.56602" stroke="#13F24B" stroke-width="2" stroke-miterlimit="10"/>
<path id="Vector_10" d="M57.4761 150.012L92.4781 -3.12402" stroke="#13F24B" stroke-width="2" stroke-miterlimit="10"/>
<path id="Vector_11" d="M66.6568 155.449L101.659 2.31342" stroke="#13F24B" stroke-width="2" stroke-miterlimit="10"/>
<path id="Vector_12" d="M75.8365 160.887L110.838 7.75104" stroke="#13F24B" stroke-width="2" stroke-miterlimit="10"/>
<path id="Vector_13" d="M85.0169 166.324L120.019 13.1886" stroke="#13F24B" stroke-width="2" stroke-miterlimit="10"/>
<path id="Vector_14" d="M94.1975 171.762L129.199 18.6261" stroke="#13F24B" stroke-width="2" stroke-miterlimit="10"/>
<path id="Vector_15" d="M103.36 177.204L138.38 24.0636" stroke="#13F24B" stroke-width="2" stroke-miterlimit="10"/>
<path id="Vector_16" d="M112.541 182.641L147.56 29.5011" stroke="#13F24B" stroke-width="2" stroke-miterlimit="10"/>
<path id="Vector_17" d="M121.717 188.061L156.741 34.9386" stroke="#13F24B" stroke-width="2" stroke-miterlimit="10"/>
</g>
</g>
</g>
</svg>
